<?xml version="1.0" encoding="UTF-8"?>
<svg width="108px" height="26px" viewBox="0 0 108 26" version="1.1" xmlns="http://www.w3.org/2000/svg" xmlns:xlink="http://www.w3.org/1999/xlink">
    <!-- Generator: Sketch 57.1 (83088) - https://sketch.com -->
    <title>Combined Shape</title>
    <desc>Created with Sketch.</desc>
    <g id="Hotel_User_part_UI" stroke="none" stroke-width="1" fill="none" fill-rule="evenodd">
        <g id="Search_Results_modify_v_02" transform="translate(-165.000000, -2143.000000)" fill="#FFFFFF">
            <g id="Navigation/Footers/v1" transform="translate(0.000000, 1629.000000)">
                <g id="Footer">
                    <g id="Bottom-Details" transform="translate(165.000000, 492.000000)">
                        <path d="M25.7793765,26.6438975 L25.7865644,26.6515492 L25.7894358,26.6549702 L25.791849,26.6581057 C25.7938093,26.6608205 25.7947812,26.6621577 25.7956647,26.6634949 C25.8872392,26.7996918 25.9608716,27.4852244 22.3302008,30.3249292 L22.0881282,30.513198 L22.3379891,36.7721748 L21.8864194,37.0863271 L20.8543737,33.4030605 L20.2135529,33.8748239 C20.2135529,33.8748239 20.0550609,33.8632892 20.0525496,33.7453825 L20.06194,33.6880619 L20.6196211,33.1536286 L20.419591,32.6338153 L20.4152617,32.6279316 L6.24307691,43.9365236 L6.24369537,43.9352755 L1.60403987,47.637352 L5.0616271,44.3761942 L1.92122539,46.8820136 L5.9299556,43.2681921 L0,48 L6.65029364,42.0130984 L5.01577215,43.347176 L6.20243475,42.2833015 L0.996086229,46.4377965 L6.99822583,41.0343588 L4.161315,43.1623752 L8.38173783,39.1553285 L18.8618478,30.7928506 L18.4835224,30.5504612 L17.8596653,31.0043061 C17.703193,31.0229489 17.7000717,30.8635201 17.7017362,30.8233716 L17.7023095,30.8143349 L18.2790747,30.2643009 L14.8329733,28.4875217 L15.2213709,28.0961685 L21.3406659,29.6028338 C24.9577258,26.3176138 25.6549337,26.521738 25.7793765,26.6438975 Z M17.5270357,44.5523923 L17.5270357,47.0484947 L4.0198803,47.0484947 L6.42651439,44.5523923 L17.5270357,44.5523923 Z M85.9970701,30.7346825 L90.9325298,46.2241569 L88.946277,46.9560497 L87.5017134,42.2345829 L81.9340915,42.2345829 L80.459488,46.9507901 L78.4732352,46.231556 L83.4088716,30.7346825 L85.9970701,30.7346825 Z M31.8263687,30.7346825 L36.7619167,46.2241569 L34.7756639,46.9560497 L33.3311003,42.2345829 L27.7634784,42.2345829 L26.2888749,46.9507901 L24.3026221,46.231556 L29.2382585,30.7346825 L31.8263687,30.7346825 Z M67.9401137,30.7346825 L72.8756618,46.2241569 L70.8894089,46.9560497 L69.4448453,42.2345829 L63.8773117,42.2345829 L62.4026199,46.9507901 L60.4163671,46.231556 L65.3520035,30.7346825 L67.9401137,30.7346825 Z M100.021061,30.7346825 L106.119417,44.0756367 L106.198669,44.0253581 L106.056245,39.9260447 L106.056245,30.7346825 L108,30.7346825 L108,46.6027621 L105.498387,46.6027621 L99.4138145,33.2589552 L99.3483452,33.3064703 L99.5181588,37.4360934 L99.5181588,46.6027621 L97.486051,46.6027621 L97.486051,30.7346825 L100.021061,30.7346825 Z M52.754446,30.3608644 L54.632467,31.3630495 L49.5106719,40.4726644 L49.5106719,46.6027354 L47.5669166,46.6027354 L47.5669166,40.4726644 L42.5104139,31.3630495 L44.4059287,30.3608644 L48.5890668,38.4988714 L52.754446,30.3608644 Z M84.7028825,33.133526 L82.4758691,40.4516526 L86.929896,40.4516526 L84.7028825,33.133526 Z M66.6460144,33.133526 L64.419001,40.4516526 L68.8730279,40.4516526 L66.6460144,33.133526 Z M30.5322694,33.133526 L28.305256,40.4516526 L32.7592828,40.4516526 L30.5322694,33.133526 Z M14.964804,30.823829 L14.964804,33.3199314 L1.07667256,33.3199314 L3.55593242,30.823829 L14.964804,30.823829 Z M5.83031164,22.0000535 C6.56999887,22.0000535 7.12639341,22.4249694 7.51668507,23.0090697 L7.60381163,23.1465668 L6.9772156,23.5323038 C6.72231861,23.0715946 6.35044288,22.6749818 5.78754902,22.6749818 C4.60866144,22.6749818 4.50210831,24.8611217 4.50210831,25.707657 C4.50210831,28.161504 5.21299263,28.6651818 5.91389311,28.6651818 C6.17411335,28.6651818 6.54993871,28.5667613 6.75820767,28.4057529 L6.8363817,28.3330219 L6.8363817,26.1882459 L5.51109401,26.1882459 L5.51109401,25.5642203 L7.5432018,25.5642203 L7.5432018,28.718848 C7.10143924,29.0937982 6.49560606,29.3402884 5.90090529,29.3402884 C4.07412874,29.3402884 3.75747333,27.1114472 3.75747333,25.6861727 C3.75747333,24.3467463 4.0673256,22.0000535 5.83031164,22.0000535 Z M12.0541719,22 C14.0508503,22 14.0189856,24.7217322 14.0189856,25.6648132 C14.0189856,26.5649256 14.0508503,29.340324 12.0541719,29.340324 C10.2254654,29.340324 10.097707,27.0784912 10.089825,25.9685258 L10.0897675,25.5467757 C10.0961607,24.3281433 10.2247618,22 12.0541719,22 Z M12.0541719,22.6750174 C10.8938089,22.6750174 10.8352011,24.3379545 10.8328853,25.4179553 L10.8328751,25.6648132 C10.8328751,27.5936764 11.0558768,28.6652175 12.0541719,28.6652175 C13.194901,28.6652175 13.2703097,27.1585772 13.2752222,25.9485909 L13.2755454,25.3607866 C13.2732184,24.0806953 13.2145349,22.6750174 12.0541719,22.6750174 Z" id="Combined-Shape"></path>
                    </g>
                </g>
            </g>
        </g>
    </g>
</svg>